<svg width="32" height="32" viewBox="0 0 32 32" fill="none" xmlns="http://www.w3.org/2000/svg">
  <g clip-path="url(#clip0_11_5008)">
    <rect width="32" height="32" rx="16" fill="#FF8C00"/>
    <path fill-rule="evenodd" clip-rule="evenodd" d="M31.9999 16.0001C31.9999 24.8366 24.8365 32.0001 15.9999 32.0001C7.16336 32.0001 -7.62939e-05 24.8366 -7.62939e-05 16.0001C-7.62939e-05 7.1635 7.16336 5.72205e-05 15.9999 5.72205e-05C24.8365 5.72205e-05 31.9999 7.1635 31.9999 16.0001ZM22.8561 28.5131L28.513 22.8562L25.8225 20.1658C24.7434 22.7071 22.707 24.7435 20.1657 25.8226L22.8561 28.5131ZM12.5772 26.1058C9.93755 25.2121 7.76146 23.3131 6.50456 20.8646L4.32344 23.0458L9.9803 28.7026L12.5772 26.1058ZM6.17734 11.8343C7.25644 9.29306 9.29292 7.25658 11.8342 6.17747L9.65678 4.00006L3.99992 9.65691L6.17734 11.8343ZM20.8645 6.5047L23.1797 4.18958L28.8365 9.84643L26.1057 12.5773C25.2119 9.93768 23.313 7.76159 20.8645 6.5047Z" fill="#FF8C00"/>
    <path d="M11.7646 10.4692L15.9904 8.0185L20.2162 10.4692L18.6626 11.3746L15.9904 9.82923L13.3182 11.3746L11.7646 10.4692ZM20.2162 13.56L18.6626 12.6546L15.9904 14.2L13.3182 12.6546L11.7646 13.56V15.3706L14.4368 16.9161V20.0068L15.9904 20.9121L17.5439 20.0068V16.9161L20.2162 15.3706V13.56ZM20.2162 18.4614V16.6506L18.6626 17.5561V19.3668L20.2162 18.4614ZM21.3191 19.1014L18.647 20.6468V22.4576L22.8727 20.0068V15.1053L21.3191 16.0106V19.1014ZM19.7655 12.0146L21.3191 12.92V14.7306L22.8727 13.8253V12.0146L21.3191 11.1092L19.7655 12.0146ZM14.4368 21.3024V23.1132L15.9904 24.0185L17.5439 23.1132V21.3024L15.9904 22.2077L14.4368 21.3024ZM11.7646 18.4614L13.3182 19.3668V17.5561L11.7646 16.6506V18.4614ZM14.4368 12.0146L15.9904 12.92L17.5439 12.0146L15.9904 11.1092L14.4368 12.0146ZM10.6616 12.92L12.2152 12.0146L10.6616 11.1092L9.10802 12.0146V13.8253L10.6616 14.7306V12.92ZM10.6616 16.0106L9.10802 15.1053V20.0068L13.3338 22.4576V20.6468L10.6616 19.1014V16.0106Z" fill="white"/>
  </g>
  <defs>
    <clipPath id="clip0_11_5008">
      <rect width="32" height="32" rx="16" fill="white"/>
    </clipPath>
  </defs>
</svg>