<svg width="24" height="25" viewBox="0 0 24 25" fill="none" xmlns="http://www.w3.org/2000/svg">
<path opacity="0.2" d="M22.0508 17.8393L15.7696 20.6237C15.6743 20.667 15.5711 20.6902 15.4664 20.6919C15.3618 20.6936 15.2579 20.6739 15.1612 20.6338C15.0645 20.5937 14.977 20.5342 14.9043 20.4589C14.8316 20.3836 14.7751 20.2942 14.7383 20.1962L13.7811 17.6021C13.1892 17.6611 12.5947 17.6906 11.9999 17.6902C11.405 17.6906 10.8106 17.6611 10.2186 17.6021L9.2577 20.1962C9.22096 20.2942 9.16446 20.3836 9.09173 20.4589C9.01899 20.5342 8.93156 20.5937 8.83487 20.6338C8.73817 20.6739 8.63427 20.6936 8.52961 20.6919C8.42495 20.6902 8.32177 20.667 8.22645 20.6237L1.9452 17.8393C1.78348 17.7683 1.65201 17.6424 1.57398 17.484C1.49595 17.3255 1.47635 17.1446 1.51864 16.9731L4.29083 6.06525C4.32698 5.92188 4.4043 5.79223 4.51325 5.69228C4.62219 5.59232 4.75801 5.52644 4.90395 5.50275L8.28458 4.94775C8.47286 4.91575 8.66629 4.95587 8.82631 5.06012C8.98634 5.16437 9.1012 5.32509 9.14802 5.51025L9.61677 7.35056C11.1997 7.13931 12.8038 7.13931 14.3868 7.35056L14.8555 5.51025C14.9023 5.32509 15.0172 5.16437 15.1772 5.06012C15.3372 4.95587 15.5307 4.91575 15.719 4.94775L19.0958 5.50275C19.2418 5.52644 19.3776 5.59232 19.4865 5.69228C19.5955 5.79223 19.6728 5.92188 19.709 6.06525L22.4774 16.9749C22.5192 17.1462 22.4994 17.3267 22.4214 17.4847C22.3433 17.6428 22.2122 17.7683 22.0508 17.8393Z" fill="#EEA27B"/>
<path d="M9.74993 13.5652C9.74993 13.7877 9.68395 14.0052 9.56033 14.1902C9.43671 14.3752 9.26101 14.5194 9.05544 14.6045C8.84988 14.6897 8.62368 14.712 8.40545 14.6685C8.18722 14.6251 7.98676 14.518 7.82943 14.3607C7.6721 14.2033 7.56495 14.0029 7.52154 13.7846C7.47813 13.5664 7.50041 13.3402 7.58556 13.1346C7.67071 12.9291 7.8149 12.7534 7.99991 12.6298C8.18491 12.5061 8.40242 12.4402 8.62493 12.4402C8.92329 12.4402 9.20944 12.5587 9.42042 12.7697C9.6314 12.9806 9.74992 13.2668 9.74993 13.5652ZM15.3749 12.4402C15.1524 12.4402 14.9349 12.5061 14.7499 12.6298C14.5649 12.7534 14.4207 12.9291 14.3356 13.1346C14.2504 13.3402 14.2281 13.5664 14.2715 13.7846C14.3149 14.0029 14.4221 14.2033 14.5794 14.3607C14.7368 14.518 14.9372 14.6251 15.1554 14.6685C15.3737 14.712 15.5999 14.6897 15.8054 14.6045C16.011 14.5194 16.1867 14.3752 16.3103 14.1902C16.4339 14.0052 16.4999 13.7877 16.4999 13.5652C16.4999 13.2668 16.3814 12.9806 16.1704 12.7697C15.9594 12.5587 15.6733 12.4402 15.3749 12.4402ZM22.3546 18.5245L16.0734 21.3099C15.8845 21.3938 15.6804 21.4383 15.4738 21.4405C15.2671 21.4427 15.0621 21.4026 14.8715 21.3227C14.6809 21.2428 14.5086 21.1248 14.3653 20.9759C14.222 20.8269 14.1106 20.6503 14.0381 20.4567L13.2777 18.3942C12.8577 18.4224 12.4318 18.4367 11.9999 18.4374C11.5681 18.438 11.1421 18.4236 10.7221 18.3942L9.9618 20.4567C9.88914 20.6502 9.77771 20.8268 9.63436 20.9756C9.49101 21.1245 9.31876 21.2424 9.12817 21.3223C8.93758 21.4022 8.73268 21.4423 8.52604 21.4402C8.3194 21.438 8.11538 21.3937 7.92649 21.3099L1.64524 18.5245C1.32116 18.3826 1.05794 18.1304 0.902403 17.8126C0.74687 17.4948 0.709118 17.1322 0.795862 16.7892L3.56242 5.87767C3.63539 5.59377 3.78953 5.33731 4.00599 5.13967C4.22245 4.94202 4.49184 4.81177 4.78117 4.76485L8.1618 4.20985C8.53451 4.14969 8.91626 4.23042 9.23271 4.4363C9.54917 4.64218 9.77765 4.95849 9.87368 5.3236L10.1793 6.52642C10.7749 6.46891 11.3818 6.44017 11.9999 6.44017C12.6181 6.44017 13.2243 6.46891 13.8187 6.52642L14.1243 5.3236C14.2205 4.9586 14.449 4.64243 14.7654 4.43658C15.0818 4.23072 15.4635 4.14991 15.8362 4.20985L19.2187 4.76485C19.508 4.81177 19.7774 4.94202 19.9939 5.13967C20.2103 5.33731 20.3645 5.59377 20.4374 5.87767L23.2059 16.7883C23.2927 17.1316 23.2548 17.4947 23.0989 17.8127C22.943 18.1307 22.6792 18.3829 22.3546 18.5245ZM21.7499 17.1539L18.9815 6.25267C18.9815 6.25267 18.9815 6.25267 18.974 6.25267L15.5934 5.69017C15.5909 5.68877 15.5882 5.68803 15.5854 5.68803C15.5826 5.68803 15.5798 5.68877 15.5774 5.69017L15.3121 6.73454C15.7809 6.82267 16.2496 6.92766 16.7024 7.05517C16.8809 7.10067 17.0365 7.21029 17.1393 7.36312C17.2422 7.51596 17.2852 7.70131 17.2602 7.88383C17.2352 8.06635 17.1438 8.23327 17.0036 8.35277C16.8634 8.47226 16.6841 8.53596 16.4999 8.53173C16.4315 8.53153 16.3633 8.52207 16.2974 8.5036C14.8968 8.12353 13.4512 7.93401 11.9999 7.94017C10.5487 7.9337 9.10314 8.12291 7.70243 8.50267C7.60674 8.53225 7.5061 8.54236 7.40644 8.53242C7.30678 8.52248 7.21012 8.49267 7.12217 8.44477C7.03421 8.39686 6.95675 8.33182 6.89433 8.25349C6.83192 8.17516 6.78583 8.08513 6.75878 7.9887C6.73173 7.89226 6.72427 7.79139 6.73683 7.69203C6.7494 7.59267 6.78174 7.49683 6.83194 7.41016C6.88215 7.3235 6.9492 7.24777 7.02915 7.18745C7.10909 7.12712 7.20031 7.08342 7.29742 7.05892C7.7493 6.93142 8.2143 6.82642 8.6868 6.73829L8.42149 5.69017C8.41782 5.68907 8.41391 5.68907 8.41024 5.69017L5.02586 6.24517C5.02308 6.24463 5.02021 6.24463 5.01742 6.24517L2.24992 17.1586L8.53118 19.9402C8.53428 19.9421 8.53785 19.9431 8.54149 19.9431C8.54513 19.9431 8.5487 19.9421 8.5518 19.9402L9.18743 18.2264C8.55057 18.129 7.92008 17.9938 7.2993 17.8214C7.1144 17.7623 6.9596 17.6339 6.86746 17.463C6.77532 17.2922 6.753 17.0923 6.8052 16.9053C6.85741 16.7183 6.98006 16.5589 7.14738 16.4605C7.31471 16.3621 7.51366 16.3324 7.70243 16.3777C9.10305 16.7579 10.5486 16.9471 11.9999 16.9402C13.4512 16.9471 14.8968 16.7579 16.2974 16.3777C16.489 16.324 16.6941 16.3486 16.8675 16.446C17.041 16.5435 17.1686 16.7059 17.2223 16.8975C17.276 17.0891 17.2514 17.2942 17.1539 17.4676C17.0564 17.641 16.894 17.7686 16.7024 17.8224C16.081 17.9944 15.4499 18.1294 14.8124 18.2264L15.4452 19.9402C15.4483 19.9418 15.4516 19.9427 15.4551 19.9427C15.4585 19.9427 15.4619 19.9418 15.4649 19.9402L21.7499 17.1539Z" fill="#EEA27B"/>
</svg>
