<svg width="25" height="24" viewBox="0 0 25 24" fill="none" xmlns="http://www.w3.org/2000/svg">
<g clip-path="url(#clip0_3012_17737)">
<rect x="0.5" width="24" height="24" rx="12" fill="#3A3A3A"/>
<path fill-rule="evenodd" clip-rule="evenodd" d="M24.5 12C24.5 18.6274 19.1274 24 12.5 24C5.87258 24 0.5 18.6274 0.5 12C0.5 5.37258 5.87258 0 12.5 0C19.1274 0 24.5 5.37258 24.5 12ZM17.6421 21.3848L21.8848 17.1421L19.8669 15.1243C19.0576 17.0303 17.5303 18.5576 15.6243 19.3669L17.6421 21.3848ZM9.93294 19.5793C7.95322 18.909 6.32115 17.4848 5.37848 15.6484L3.74264 17.2843L7.98528 21.5269L9.93294 19.5793ZM5.13306 8.8757C5.94239 6.96975 7.46975 5.44239 9.3757 4.63306L7.74264 3L3.5 7.24264L5.13306 8.8757ZM16.1484 4.87848L17.8848 3.14214L22.1274 7.38478L20.0793 9.43294C19.409 7.45322 17.9848 5.82115 16.1484 4.87848Z" fill="#3A3A3A"/>
<path d="M12.4995 6L12.4189 6.27346V14.208L12.4995 14.2884L16.1825 12.1113L12.4995 6Z" fill="#B7B7B7"/>
<path d="M12.4991 6L8.81592 12.1113L12.4991 14.2884V10.4371V6Z" fill="white"/>
<path d="M12.4996 14.9857L12.4542 15.041V17.8674L12.4996 17.9999L16.1849 12.8097L12.4996 14.9857Z" fill="#939090"/>
<path d="M12.4991 17.9999V14.9857L8.81592 12.8097L12.4991 17.9999Z" fill="white"/>
<path d="M12.4991 14.2884L16.1822 12.1113L12.4991 10.4371V14.2884Z" fill="#939090"/>
<path d="M8.81592 12.1113L12.4991 14.2884V10.4371L8.81592 12.1113Z" fill="#B1B1B1"/>
</g>
<defs>
<clipPath id="clip0_3012_17737">
<rect x="0.5" width="24" height="24" rx="12" fill="white"/>
</clipPath>
</defs>
</svg>
