<svg width="24" height="24" viewBox="0 0 24 24" fill="none" xmlns="http://www.w3.org/2000/svg">
<g clip-path="url(#clip0_104_1825)">
<path d="M17.5424 19.9117H5.83154V22.2472H17.5424V19.9117Z" fill="#B35030"/>
<path d="M10.516 12.8918H8.17383V15.2272H10.516V12.8918Z" fill="#B35030"/>
<path d="M15.2006 12.8918H12.8584V15.2272H15.2006V12.8918Z" fill="#B35030"/>
<path d="M17.5424 1.18091H5.83154V3.5164H17.5424V1.18091Z" fill="#B35030"/>
<path d="M12.8583 15.2338H10.5161V17.5693H12.8583V15.2338Z" fill="#B35030"/>
<path d="M12.8583 5.86531H10.5161V8.2008H12.8583V5.86531Z" fill="#B35030"/>
<path d="M15.2006 8.20737H12.8584V10.5429H15.2006V8.20737Z" fill="#B35030"/>
<path d="M10.516 8.20737H8.17383V10.5429H10.516V8.20737Z" fill="#B35030"/>
<path d="M22.2201 5.85852H19.8779V17.5694H22.2201V5.85852Z" fill="#B35030"/>
<path d="M3.48278 10.5429V5.85852H1.14062V10.5429H1.14742V12.885V17.5694H3.48958V12.885V10.5429H3.48278Z" fill="#B35030"/>
</g>
<defs>
<clipPath id="clip0_104_1825">
<rect width="103.807" height="24" fill="white"/>
</clipPath>
</defs>
</svg>
