<svg width="170" height="31" viewBox="0 0 170 31" fill="none" xmlns="http://www.w3.org/2000/svg">
<path d="M21.8378 25.5078H7.25781V28.4155H21.8378V25.5078Z" fill="#FFC6BA"/>
<path d="M13.0957 16.7656H10.1797V19.6733H13.0957V16.7656Z" fill="#FFC6BA"/>
<path d="M18.9238 16.7656H16.0078V19.6733H18.9238V16.7656Z" fill="#FFC6BA"/>
<path d="M21.8378 2.1875H7.25781V5.09519H21.8378V2.1875Z" fill="#FFC6BA"/>
<path d="M16.0098 19.6875H13.0938V22.5952H16.0098V19.6875Z" fill="#FFC6BA"/>
<path d="M16.0098 8.02344H13.0938V10.9311H16.0098V8.02344Z" fill="#FFC6BA"/>
<path d="M18.9238 10.9375H16.0078V13.8452H18.9238V10.9375Z" fill="#FFC6BA"/>
<path d="M13.0957 10.9375H10.1797V13.8452H13.0957V10.9375Z" fill="#FFC6BA"/>
<path d="M27.666 8.01562H24.75V22.5956H27.666V8.01562Z" fill="#FFC6BA"/>
<path d="M4.33787 13.8476V8.01562H1.42188V13.8476H1.43033V16.7636V22.5956H4.34633V16.7636V13.8476H4.33787Z" fill="#FFC6BA"/>
<path d="M47.9381 23.4919H49.141V25.8156H46.0792V24.4761H44.8763V23.0545H43.7555V21.5783H42.6346V20.0474H41.5411V18.4618H39.9829V16.9036H38.452V15.7281H36.2376V25.8156H33.4766V5.3125H36.2376V13.2404H38.452V11.5728H40.2563V9.87786H42.1152V8.21028H43.9468V6.54269H45.8058V5.33984H48.5942V7.66353H46.7352V8.86638H44.9036V10.534H43.0447V12.2016H41.2404V16.1382H42.7713V17.4503H44.3295V19.2546H45.6964V20.7309H46.8173V22.1524H47.9381V23.4919Z" fill="white"/>
<path d="M64.322 7.69086H54.0978V13.8691H60.7135V15.072H62.8458V17.3957H60.03V16.1928H54.0978V23.4099H64.322V25.8156H51.3367V5.3125H64.322V7.69086Z" fill="white"/>
<path d="M80.1419 23.4919H81.3447V25.8156H78.2829V24.4761H77.0801V23.0545H75.9593V21.5783H74.8384V20.0474H73.4715V17.341H69.2616V25.8156H66.5005V5.3125H76.4513V7.14411H78.9664V8.70235H80.716V10.944C80.716 14.4979 79.2397 16.2202 76.5333 16.9309V19.2546H77.9002V20.7309H79.021V22.1524H80.1419V23.4919ZM72.214 15.0173C76.0959 15.0173 77.9549 14.5252 77.9549 11.0534V9.4678H75.9046V7.63619H69.2616V15.0173H72.214Z" fill="white"/>
<path d="M96.1356 5.3125H98.8967V25.8156H96.1356V19.3913H94.4407V17.8604H93.1285V16.2475H91.9803V14.7439H90.6408V13.0764H89.2466V11.5455H87.9344V9.93254H86.7862V8.42898H86.2941V25.8156H83.533V5.3125H88.0164V6.81606H89.3559V8.45631H90.5041V9.95988H91.8163V11.6275H93.2105V13.131H94.55V14.7713H95.6982V16.2748H96.1356V5.3125Z" fill="white"/>
<path d="M114.058 7.69086H103.834V13.8691H110.45V15.072H112.582V17.3957H109.766V16.1928H103.834V23.4099H114.058V25.8156H101.073V5.3125H114.058V7.69086Z" fill="white"/>
<path d="M118.998 23.5466H129.222V25.8703H117.221V25.8156H116.237V5.3125H118.998V23.5466Z" fill="white"/>
<path d="M141.102 8.27479H142.411V11.9432C142.411 16.0078 140.155 18.2984 136.194 18.2984H132.422V5.38139H138.622V6.36308H139.862V7.31032H141.102V8.27479ZM136.194 16.8344C139.053 16.8344 140.672 15.2327 140.672 11.926V8.77425H139.173V7.827H137.933V6.93143H134.161V16.8344H136.194Z" fill="white"/>
<path d="M153.936 18.2984L152.213 13.5105H146.978V14.7161H146.478V15.8872H145.91V17.0756H145.531V18.2811H143.791V16.8172H144.153V15.6116H144.722V14.4233H145.221V13.2521H145.703V12.0465H146.237V10.8065H146.788V9.63538H147.253V8.41257H147.822V7.22421H148.476V5.39861H151.008L155.727 18.2984H153.936ZM147.994 12.0465H151.697L150.026 7.39644H149.561V8.68813H148.993V9.8765H148.528V11.0993H147.994V12.0465Z" fill="white"/>
<path d="M157.112 16.1972V7.517H158.852V6.55253H159.816V5.3125H166.481V6.94865H160.522V8.61924H158.852V16.1972H157.112ZM169.013 7.68922V16.3694H167.273V17.3339H166.309V18.5739H159.644V16.9378H165.603V15.2672H167.273V7.68922H169.013Z" fill="white"/>
</svg>
