<svg width="170" height="43" viewBox="0 0 170 43" fill="none" xmlns="http://www.w3.org/2000/svg">
<path d="M21.8406 31.4187H7.26062V34.3264H21.8406V31.4187Z" fill="#C94325"/>
<path d="M13.0927 22.6789H10.1767V25.5866H13.0927V22.6789Z" fill="#C94325"/>
<path d="M18.9247 22.6789H16.0087V25.5866H18.9247V22.6789Z" fill="#C94325"/>
<path d="M21.8406 8.09879H7.26062V11.0065H21.8406V8.09879Z" fill="#C94325"/>
<path d="M16.0087 25.5949H13.0927V28.5026H16.0087V25.5949Z" fill="#C94325"/>
<path d="M16.0087 13.9308H13.0927V16.8385H16.0087V13.9308Z" fill="#C94325"/>
<path d="M18.9247 16.8464H16.0087V19.7541H18.9247V16.8464Z" fill="#C94325"/>
<path d="M13.0927 16.8464H10.1767V19.7541H13.0927V16.8464Z" fill="#C94325"/>
<path d="M27.6642 13.9224H24.7482V28.5024H27.6642V13.9224Z" fill="#C94325"/>
<path d="M4.33592 19.7544V13.9224H1.41992V19.7544H1.42838V22.6704V28.5024H4.34438V22.6704V19.7544H4.33592Z" fill="#C94325"/>
<path d="M47.9415 29.4005H49.1443V31.7242H46.0825V30.3846H44.8797V28.9631H43.7588V27.4869H42.638V25.956H41.5445V24.3704H39.9863V22.8122H38.4554V21.6366H36.241V31.7242H33.4799V11.2211H36.241V19.1489H38.4554V17.4813H40.2596V15.7864H42.1186V14.1188H43.9502V12.4512H45.8092V11.2484H48.5976V13.5721H46.7386V14.7749H44.907V16.4425H43.0481V18.1101H41.2438V22.0467H42.7747V23.3589H44.3329V25.1632H45.6998V26.6394H46.8206V28.061H47.9415V29.4005Z" fill="black"/>
<path d="M64.3254 13.5994H54.1012V19.7777H60.7169V20.9805H62.8492V23.3042H60.0334V22.1014H54.1012V29.3185H64.3254V31.7242H51.3401V11.2211H64.3254V13.5994Z" fill="black"/>
<path d="M80.1453 29.4005H81.3481V31.7242H78.2863V30.3846H77.0835V28.9631H75.9626V27.4869H74.8418V25.956H73.4749V23.2496H69.2649V31.7242H66.5039V11.2211H76.4547V13.0527H78.9698V14.6109H80.7194V16.8526C80.7194 20.4065 79.2431 22.1287 76.5367 22.8395V25.1632H77.9036V26.6394H79.0244V28.061H80.1453V29.4005ZM72.2174 20.9259C76.0993 20.9259 77.9583 20.4338 77.9583 16.9619V15.3764H75.908V13.5447H69.2649V20.9259H72.2174Z" fill="black"/>
<path d="M96.139 11.2211H98.9001V31.7242H96.139V25.2999H94.4441V23.769H93.1319V22.1561H91.9837V20.6525H90.6442V18.9849H89.2499V17.454H87.9377V15.8411H86.7896V14.3375H86.2975V31.7242H83.5364V11.2211H88.0198V12.7246H89.3593V14.3649H90.5075V15.8684H91.8197V17.536H93.2139V19.0396H94.5534V20.6798H95.7016V22.1834H96.139V11.2211Z" fill="black"/>
<path d="M114.062 13.5994H103.837V19.7777H110.453V20.9805H112.585V23.3042H109.77V22.1014H103.837V29.3185H114.062V31.7242H101.076V11.2211H114.062V13.5994Z" fill="black"/>
<path d="M119.001 29.4552H129.225V31.7789H117.224V31.7242H116.24V11.2211H119.001V29.4552Z" fill="black"/>
<path d="M141.105 14.1832H142.414V17.8516C142.414 21.9162 140.158 24.2068 136.197 24.2068H132.425V11.2898H138.625V12.2715H139.865V13.2188H141.105V14.1832ZM136.197 22.7429C139.056 22.7429 140.675 21.1412 140.675 17.8344V14.6827H139.177V13.7354H137.936V12.8399H134.165V22.7429H136.197Z" fill="black"/>
<path d="M153.939 24.2068L152.217 19.4189H146.981V20.6245H146.482V21.7956H145.913V22.984H145.534V24.1896H143.795V22.7256H144.157V21.5201H144.725V20.3317H145.224V19.1606H145.707V17.955H146.24V16.715H146.792V15.5438H147.257V14.321H147.825V13.1326H148.479V11.307H151.011L155.73 24.2068H153.939ZM147.997 17.955H151.7L150.029 13.3049H149.564V14.5966H148.996V15.7849H148.531V17.0077H147.997V17.955Z" fill="black"/>
<path d="M157.115 22.1056V13.4254H158.855V12.461H159.819V11.2209H166.485V12.8571H160.526V14.5277H158.855V22.1056H157.115ZM169.016 13.5977V22.2779H167.277V23.2423H166.312V24.4824H159.647V22.8462H165.606V21.1756H167.277V13.5977H169.016Z" fill="black"/>
</svg>
