<svg width="24" height="25" viewBox="0 0 24 25" fill="none" xmlns="http://www.w3.org/2000/svg">
<path opacity="0.2" d="M20.9447 3.44834L7.5 13.084L1.96875 11.9993C1.84489 11.9742 1.73251 11.9096 1.64849 11.8151C1.56447 11.7207 1.51334 11.6016 1.50278 11.4757C1.49221 11.3497 1.52278 11.2238 1.5899 11.1167C1.65701 11.0096 1.75705 10.9272 1.875 10.8818L20.8716 3.44646C20.8833 3.44186 20.8958 3.43965 20.9083 3.43997C20.9209 3.44029 20.9332 3.44314 20.9447 3.44834ZM7.5 19.1899C7.49985 19.3395 7.54442 19.4857 7.628 19.6097C7.71157 19.7338 7.83033 19.83 7.96902 19.886C8.1077 19.9421 8.25997 19.9554 8.40627 19.9242C8.55256 19.893 8.6862 19.8188 8.79 19.7111L11.6597 16.7336L7.5 13.084V19.1899Z" fill="#EEA27B"/>
<path d="M21.4576 2.89508C21.3414 2.79474 21.2 2.72801 21.0487 2.70207C20.8974 2.67613 20.7419 2.69198 20.5989 2.74789L1.59949 10.1832C1.33023 10.2879 1.10226 10.4773 0.949919 10.7227C0.797576 10.9682 0.729099 11.2565 0.754798 11.5443C0.780496 11.832 0.898979 12.1037 1.09241 12.3183C1.28584 12.5329 1.54375 12.6788 1.8273 12.7341L6.75011 13.7007V19.1898C6.74915 19.4888 6.838 19.7811 7.00515 20.029C7.17231 20.2769 7.41007 20.4689 7.68761 20.5801C7.96473 20.6932 8.26949 20.7204 8.56225 20.658C8.85501 20.5957 9.12224 20.4467 9.32918 20.2304L11.7029 17.7685L15.4689 21.0648C15.7406 21.3058 16.091 21.4391 16.4542 21.4398C16.6133 21.4396 16.7715 21.4147 16.9229 21.3657C17.1704 21.2872 17.3929 21.1452 17.5684 20.9539C17.744 20.7626 17.8663 20.5287 17.9232 20.2754L21.7286 3.72102C21.7626 3.57172 21.7554 3.41598 21.7076 3.27048C21.6599 3.12498 21.5735 2.99521 21.4576 2.89508ZM7.32668 12.2851L2.67574 11.3729L15.7257 6.26539L7.32668 12.2851ZM8.25011 19.1898V14.7385L10.5742 16.7766L8.25011 19.1898ZM16.4561 19.9398L8.7048 13.1429L19.8611 5.14696L16.4561 19.9398Z" fill="#EEA27B"/>
</svg>
